<?xml version="1.0" standalone="no"?>
<!DOCTYPE svg PUBLIC "-//W3C//DTD SVG 20010904//EN"
 "http://www.w3.org/TR/2001/REC-SVG-20010904/DTD/svg10.dtd">
<svg version="1.0" xmlns="http://www.w3.org/2000/svg"
 width="100.000000pt" height="100.000000pt" viewBox="0 0 100.000000 100.000000"
 preserveAspectRatio="xMidYMid meet">

<g transform="translate(0.000000,100.000000) scale(0.100000,-0.100000)"
fill="#000000" stroke="none">
<path d="M100 900 c-18 -18 -20 -33 -20 -180 0 -212 -12 -200 200 -200 212 0
200 -12 200 200 0 147 -2 162 -20 180 -18 18 -33 20 -180 20 -147 0 -162 -2
-180 -20z m335 -180 l0 -155 -155 0 -155 0 -3 145 c-1 79 0 150 2 157 4 11 39
13 158 11 l153 -3 0 -155z"/>
<path d="M540 900 c-18 -18 -20 -33 -20 -180 0 -212 -12 -200 200 -200 212 0
200 -12 200 200 0 147 -2 162 -20 180 -18 18 -33 20 -180 20 -147 0 -162 -2
-180 -20z m335 -180 l0 -155 -155 0 -155 0 -3 145 c-1 79 0 150 2 157 4 11 39
13 158 11 l153 -3 0 -155z"/>
<path d="M100 460 c-18 -18 -20 -33 -20 -180 0 -147 2 -162 20 -180 18 -18 33
-20 180 -20 212 0 200 -12 200 200 0 212 12 200 -200 200 -147 0 -162 -2 -180
-20z m335 -180 l0 -155 -155 0 -155 0 -3 145 c-1 79 0 150 2 157 4 11 39 13
158 11 l153 -3 0 -155z"/>
<path d="M540 460 c-18 -18 -20 -33 -20 -180 0 -212 -12 -200 200 -200 212 0
200 -12 200 200 0 212 12 200 -200 200 -147 0 -162 -2 -180 -20z m335 -180 l0
-155 -155 0 -155 0 -3 145 c-1 79 0 150 2 157 4 11 39 13 158 11 l153 -3 0
-155z"/>
</g>
</svg>
